<svg id="visual" viewBox="0 0 1920 1080" width="1920" height="1080" xmlns="http://www.w3.org/2000/svg" xmlns:xlink="http://www.w3.org/1999/xlink" version="1.1"><rect x="0" y="0" width="1920" height="1080" fill="#073B4C"></rect><path d="M0 729L26.7 732.3C53.3 735.7 106.7 742.3 160 742.7C213.3 743 266.7 737 320 732.8C373.3 728.7 426.7 726.3 480 738.3C533.3 750.3 586.7 776.7 640 776.3C693.3 776 746.7 749 800 736.7C853.3 724.3 906.7 726.7 960 738.8C1013.3 751 1066.7 773 1120 775.8C1173.3 778.7 1226.7 762.3 1280 764.5C1333.3 766.7 1386.7 787.3 1440 797.5C1493.3 807.7 1546.7 807.3 1600 799.3C1653.3 791.3 1706.7 775.7 1760 761C1813.3 746.3 1866.7 732.7 1893.3 725.8L1920 719L1920 1081L1893.3 1081C1866.7 1081 1813.3 1081 1760 1081C1706.7 1081 1653.3 1081 1600 1081C1546.7 1081 1493.3 1081 1440 1081C1386.7 1081 1333.3 1081 1280 1081C1226.7 1081 1173.3 1081 1120 1081C1066.7 1081 1013.3 1081 960 1081C906.7 1081 853.3 1081 800 1081C746.7 1081 693.3 1081 640 1081C586.7 1081 533.3 1081 480 1081C426.7 1081 373.3 1081 320 1081C266.7 1081 213.3 1081 160 1081C106.7 1081 53.3 1081 26.7 1081L0 1081Z" fill="#842721"></path><path d="M0 866L26.7 849.2C53.3 832.3 106.7 798.7 160 792.5C213.3 786.3 266.7 807.7 320 812C373.3 816.3 426.7 803.7 480 794C533.3 784.3 586.7 777.7 640 789.5C693.3 801.3 746.7 831.7 800 843C853.3 854.3 906.7 846.7 960 840.5C1013.3 834.3 1066.7 829.7 1120 825C1173.3 820.3 1226.7 815.7 1280 804.7C1333.3 793.7 1386.7 776.3 1440 777.5C1493.3 778.7 1546.7 798.3 1600 807.3C1653.3 816.3 1706.7 814.7 1760 815.2C1813.3 815.7 1866.7 818.3 1893.3 819.7L1920 821L1920 1081L1893.3 1081C1866.7 1081 1813.3 1081 1760 1081C1706.7 1081 1653.3 1081 1600 1081C1546.7 1081 1493.3 1081 1440 1081C1386.7 1081 1333.3 1081 1280 1081C1226.7 1081 1173.3 1081 1120 1081C1066.7 1081 1013.3 1081 960 1081C906.7 1081 853.3 1081 800 1081C746.7 1081 693.3 1081 640 1081C586.7 1081 533.3 1081 480 1081C426.7 1081 373.3 1081 320 1081C266.7 1081 213.3 1081 160 1081C106.7 1081 53.3 1081 26.7 1081L0 1081Z" fill="#94312a"></path><path d="M0 849L26.7 846.7C53.3 844.3 106.7 839.7 160 844.3C213.3 849 266.7 863 320 871.2C373.3 879.3 426.7 881.7 480 885.3C533.3 889 586.7 894 640 889.2C693.3 884.3 746.7 869.7 800 856.3C853.3 843 906.7 831 960 834.5C1013.3 838 1066.7 857 1120 858.2C1173.3 859.3 1226.7 842.7 1280 831.5C1333.3 820.3 1386.7 814.7 1440 824.7C1493.3 834.7 1546.7 860.3 1600 862.5C1653.3 864.7 1706.7 843.3 1760 832.2C1813.3 821 1866.7 820 1893.3 819.5L1920 819L1920 1081L1893.3 1081C1866.7 1081 1813.3 1081 1760 1081C1706.7 1081 1653.3 1081 1600 1081C1546.7 1081 1493.3 1081 1440 1081C1386.7 1081 1333.3 1081 1280 1081C1226.7 1081 1173.3 1081 1120 1081C1066.7 1081 1013.3 1081 960 1081C906.7 1081 853.3 1081 800 1081C746.7 1081 693.3 1081 640 1081C586.7 1081 533.3 1081 480 1081C426.7 1081 373.3 1081 320 1081C266.7 1081 213.3 1081 160 1081C106.7 1081 53.3 1081 26.7 1081L0 1081Z" fill="#a43c34"></path><path d="M0 893L26.7 890C53.3 887 106.7 881 160 872.2C213.3 863.3 266.7 851.7 320 853.8C373.3 856 426.7 872 480 883.3C533.3 894.7 586.7 901.3 640 908C693.3 914.7 746.7 921.3 800 920.2C853.3 919 906.7 910 960 897.5C1013.3 885 1066.7 869 1120 872.5C1173.3 876 1226.7 899 1280 900.8C1333.3 902.7 1386.7 883.3 1440 884.5C1493.3 885.7 1546.7 907.3 1600 916.8C1653.3 926.3 1706.7 923.7 1760 914.8C1813.3 906 1866.7 891 1893.3 883.5L1920 876L1920 1081L1893.3 1081C1866.7 1081 1813.3 1081 1760 1081C1706.7 1081 1653.3 1081 1600 1081C1546.7 1081 1493.3 1081 1440 1081C1386.7 1081 1333.3 1081 1280 1081C1226.7 1081 1173.3 1081 1120 1081C1066.7 1081 1013.3 1081 960 1081C906.7 1081 853.3 1081 800 1081C746.7 1081 693.3 1081 640 1081C586.7 1081 533.3 1081 480 1081C426.7 1081 373.3 1081 320 1081C266.7 1081 213.3 1081 160 1081C106.7 1081 53.3 1081 26.7 1081L0 1081Z" fill="#b5473e"></path><path d="M0 917L26.7 913C53.3 909 106.7 901 160 906.2C213.3 911.3 266.7 929.7 320 933C373.3 936.3 426.7 924.7 480 916.3C533.3 908 586.7 903 640 909.7C693.3 916.3 746.7 934.7 800 932.8C853.3 931 906.7 909 960 906.3C1013.3 903.7 1066.7 920.3 1120 925.5C1173.3 930.7 1226.7 924.3 1280 922.7C1333.3 921 1386.7 924 1440 925.5C1493.3 927 1546.7 927 1600 928.3C1653.3 929.7 1706.7 932.3 1760 928.5C1813.3 924.7 1866.7 914.3 1893.3 909.2L1920 904L1920 1081L1893.3 1081C1866.7 1081 1813.3 1081 1760 1081C1706.7 1081 1653.3 1081 1600 1081C1546.7 1081 1493.3 1081 1440 1081C1386.7 1081 1333.3 1081 1280 1081C1226.7 1081 1173.3 1081 1120 1081C1066.7 1081 1013.3 1081 960 1081C906.7 1081 853.3 1081 800 1081C746.7 1081 693.3 1081 640 1081C586.7 1081 533.3 1081 480 1081C426.7 1081 373.3 1081 320 1081C266.7 1081 213.3 1081 160 1081C106.7 1081 53.3 1081 26.7 1081L0 1081Z" fill="#c65148"></path><path d="M0 994L26.7 984.8C53.3 975.7 106.7 957.3 160 954.2C213.3 951 266.7 963 320 966.5C373.3 970 426.7 965 480 959.3C533.3 953.7 586.7 947.3 640 948.8C693.3 950.3 746.7 959.7 800 967.8C853.3 976 906.7 983 960 975.3C1013.3 967.7 1066.7 945.3 1120 946C1173.3 946.7 1226.7 970.3 1280 971.7C1333.3 973 1386.7 952 1440 945.7C1493.3 939.3 1546.7 947.7 1600 955.8C1653.3 964 1706.7 972 1760 973.3C1813.3 974.7 1866.7 969.3 1893.3 966.7L1920 964L1920 1081L1893.3 1081C1866.7 1081 1813.3 1081 1760 1081C1706.7 1081 1653.3 1081 1600 1081C1546.7 1081 1493.3 1081 1440 1081C1386.7 1081 1333.3 1081 1280 1081C1226.7 1081 1173.3 1081 1120 1081C1066.7 1081 1013.3 1081 960 1081C906.7 1081 853.3 1081 800 1081C746.7 1081 693.3 1081 640 1081C586.7 1081 533.3 1081 480 1081C426.7 1081 373.3 1081 320 1081C266.7 1081 213.3 1081 160 1081C106.7 1081 53.3 1081 26.7 1081L0 1081Z" fill="#d75c52"></path><path d="M0 1014L26.7 1014C53.3 1014 106.7 1014 160 1010.3C213.3 1006.7 266.7 999.3 320 1000.3C373.3 1001.3 426.7 1010.7 480 1010.7C533.3 1010.7 586.7 1001.3 640 997.7C693.3 994 746.7 996 800 993.7C853.3 991.3 906.7 984.7 960 980.3C1013.3 976 1066.7 974 1120 973.7C1173.3 973.3 1226.7 974.7 1280 976.7C1333.3 978.7 1386.7 981.3 1440 989.5C1493.3 997.7 1546.7 1011.3 1600 1009.5C1653.3 1007.7 1706.7 990.3 1760 990.2C1813.3 990 1866.7 1007 1893.3 1015.5L1920 1024L1920 1081L1893.3 1081C1866.7 1081 1813.3 1081 1760 1081C1706.7 1081 1653.3 1081 1600 1081C1546.7 1081 1493.3 1081 1440 1081C1386.7 1081 1333.3 1081 1280 1081C1226.7 1081 1173.3 1081 1120 1081C1066.7 1081 1013.3 1081 960 1081C906.7 1081 853.3 1081 800 1081C746.7 1081 693.3 1081 640 1081C586.7 1081 533.3 1081 480 1081C426.7 1081 373.3 1081 320 1081C266.7 1081 213.3 1081 160 1081C106.7 1081 53.3 1081 26.7 1081L0 1081Z" fill="#e8675d"></path><path d="M0 1019L26.7 1017.5C53.3 1016 106.7 1013 160 1013C213.3 1013 266.7 1016 320 1016.7C373.3 1017.3 426.7 1015.7 480 1019.2C533.3 1022.7 586.7 1031.3 640 1035.8C693.3 1040.3 746.7 1040.7 800 1040.3C853.3 1040 906.7 1039 960 1039.5C1013.3 1040 1066.7 1042 1120 1038.7C1173.3 1035.3 1226.7 1026.7 1280 1024.5C1333.3 1022.3 1386.7 1026.7 1440 1025.3C1493.3 1024 1546.7 1017 1600 1019.3C1653.3 1021.7 1706.7 1033.3 1760 1034.5C1813.3 1035.7 1866.7 1026.3 1893.3 1021.7L1920 1017L1920 1081L1893.3 1081C1866.7 1081 1813.3 1081 1760 1081C1706.7 1081 1653.3 1081 1600 1081C1546.7 1081 1493.3 1081 1440 1081C1386.7 1081 1333.3 1081 1280 1081C1226.7 1081 1173.3 1081 1120 1081C1066.7 1081 1013.3 1081 960 1081C906.7 1081 853.3 1081 800 1081C746.7 1081 693.3 1081 640 1081C586.7 1081 533.3 1081 480 1081C426.7 1081 373.3 1081 320 1081C266.7 1081 213.3 1081 160 1081C106.7 1081 53.3 1081 26.7 1081L0 1081Z" fill="#fa7268"></path></svg>