<svg id="visual" viewBox="0 0 1920 1080" width="1920" height="1080" xmlns="http://www.w3.org/2000/svg" xmlns:xlink="http://www.w3.org/1999/xlink" version="1.1"><rect x="0" y="0" width="1920" height="1080" fill="#ffffff"></rect><g transform="translate(59.3071728828711 1141.1763234142932)"><path d="M470.2 -703.7C651.2 -515.7 868.7 -434.3 953.5 -283.7C1038.2 -133.2 990.4 86.5 968.1 363.8C945.7 641 949 975.8 791.9 1076.1C634.8 1176.4 317.4 1042.2 36.7 991.6C-243.9 941.1 -487.9 974.2 -584.2 854.1C-680.5 734.1 -629.1 460.9 -737.3 218.2C-845.5 -24.4 -1113.2 -236.6 -1120.3 -410.1C-1127.3 -583.6 -873.7 -718.6 -643.6 -890.6C-413.4 -1062.7 -206.7 -1271.8 -31.1 -1229.1C144.6 -1186.4 289.2 -891.7 470.2 -703.7" fill="#62bcef"></path></g></svg>