<svg id="visual" viewBox="0 0 1920 1080" width="1920" height="1080" xmlns="http://www.w3.org/2000/svg" xmlns:xlink="http://www.w3.org/1999/xlink" version="1.1"><rect x="0" y="0" width="1920" height="1080" fill="#ffffff"></rect><defs><linearGradient id="grad1_0" x1="43.8%" y1="0%" x2="100%" y2="100%"><stop offset="14.444444444444446%" stop-color="#ffffff" stop-opacity="1"></stop><stop offset="85.55555555555554%" stop-color="#ffffff" stop-opacity="1"></stop></linearGradient></defs><defs><linearGradient id="grad2_0" x1="0%" y1="0%" x2="56.3%" y2="100%"><stop offset="14.444444444444446%" stop-color="#ffffff" stop-opacity="1"></stop><stop offset="85.55555555555554%" stop-color="#ffffff" stop-opacity="1"></stop></linearGradient></defs><g transform="translate(1920, 0)"><path d="M0 702C-60.7 654.4 -121.3 606.7 -189.4 583C-257.5 559.2 -333.1 559.4 -379.7 522.6C-426.3 485.9 -444 412.3 -494.3 359.1C-544.6 306 -627.6 273.4 -667.6 216.9C-707.7 160.5 -704.8 80.2 -702 0L0 0Z" fill="#073B4C"></path></g><g transform="translate(0, 1080)"><path d="M0 -702C64.1 -658 128.3 -614.1 191.3 -588.7C254.3 -563.3 316.2 -556.5 388.5 -534.8C460.9 -513 543.6 -476.2 567.9 -412.6C592.2 -349 558 -258.6 570.6 -185.4C583.2 -112.2 642.6 -56.1 702 0L0 0Z" fill="#073B4C"></path></g></svg>