<svg id="visual" viewBox="0 0 1920 1080" width="1920" height="1080" xmlns="http://www.w3.org/2000/svg" xmlns:xlink="http://www.w3.org/1999/xlink" version="1.1"><rect x="0" y="0" width="1920" height="1080" fill="#ffffff"></rect><path d="M0 837L26.7 847.8C53.3 858.7 106.7 880.3 160 879.2C213.3 878 266.7 854 320 843.8C373.3 833.7 426.7 837.3 480 834.7C533.3 832 586.7 823 640 833.5C693.3 844 746.7 874 800 887.7C853.3 901.3 906.7 898.7 960 888C1013.3 877.3 1066.7 858.7 1120 858.7C1173.3 858.7 1226.7 877.3 1280 887.8C1333.3 898.3 1386.7 900.7 1440 886.7C1493.3 872.7 1546.7 842.3 1600 829.5C1653.3 816.7 1706.7 821.3 1760 833.5C1813.3 845.7 1866.7 865.3 1893.3 875.2L1920 885L1920 1081L1893.3 1081C1866.7 1081 1813.3 1081 1760 1081C1706.7 1081 1653.3 1081 1600 1081C1546.7 1081 1493.3 1081 1440 1081C1386.7 1081 1333.3 1081 1280 1081C1226.7 1081 1173.3 1081 1120 1081C1066.7 1081 1013.3 1081 960 1081C906.7 1081 853.3 1081 800 1081C746.7 1081 693.3 1081 640 1081C586.7 1081 533.3 1081 480 1081C426.7 1081 373.3 1081 320 1081C266.7 1081 213.3 1081 160 1081C106.7 1081 53.3 1081 26.7 1081L0 1081Z" fill="#ee3e3e"></path><path d="M0 921L26.7 921.8C53.3 922.7 106.7 924.3 160 923C213.3 921.7 266.7 917.3 320 904.7C373.3 892 426.7 871 480 860.7C533.3 850.3 586.7 850.7 640 857.3C693.3 864 746.7 877 800 876.5C853.3 876 906.7 862 960 862.5C1013.3 863 1066.7 878 1120 883.5C1173.3 889 1226.7 885 1280 890.7C1333.3 896.3 1386.7 911.7 1440 918C1493.3 924.3 1546.7 921.7 1600 909.3C1653.3 897 1706.7 875 1760 872.3C1813.3 869.7 1866.7 886.3 1893.3 894.7L1920 903L1920 1081L1893.3 1081C1866.7 1081 1813.3 1081 1760 1081C1706.7 1081 1653.3 1081 1600 1081C1546.7 1081 1493.3 1081 1440 1081C1386.7 1081 1333.3 1081 1280 1081C1226.7 1081 1173.3 1081 1120 1081C1066.7 1081 1013.3 1081 960 1081C906.7 1081 853.3 1081 800 1081C746.7 1081 693.3 1081 640 1081C586.7 1081 533.3 1081 480 1081C426.7 1081 373.3 1081 320 1081C266.7 1081 213.3 1081 160 1081C106.7 1081 53.3 1081 26.7 1081L0 1081Z" fill="#dd3634"></path><path d="M0 892L26.7 899.8C53.3 907.7 106.7 923.3 160 921C213.3 918.7 266.7 898.3 320 900.3C373.3 902.3 426.7 926.7 480 937.5C533.3 948.3 586.7 945.7 640 945.5C693.3 945.3 746.7 947.7 800 947C853.3 946.3 906.7 942.7 960 935.5C1013.3 928.3 1066.7 917.7 1120 916.5C1173.3 915.3 1226.7 923.7 1280 919C1333.3 914.3 1386.7 896.7 1440 896.8C1493.3 897 1546.7 915 1600 921.5C1653.3 928 1706.7 923 1760 919.7C1813.3 916.3 1866.7 914.7 1893.3 913.8L1920 913L1920 1081L1893.3 1081C1866.7 1081 1813.3 1081 1760 1081C1706.7 1081 1653.3 1081 1600 1081C1546.7 1081 1493.3 1081 1440 1081C1386.7 1081 1333.3 1081 1280 1081C1226.7 1081 1173.3 1081 1120 1081C1066.7 1081 1013.3 1081 960 1081C906.7 1081 853.3 1081 800 1081C746.7 1081 693.3 1081 640 1081C586.7 1081 533.3 1081 480 1081C426.7 1081 373.3 1081 320 1081C266.7 1081 213.3 1081 160 1081C106.7 1081 53.3 1081 26.7 1081L0 1081Z" fill="#cc2d2b"></path><path d="M0 951L26.7 952C53.3 953 106.7 955 160 953.2C213.3 951.3 266.7 945.7 320 943.2C373.3 940.7 426.7 941.3 480 945.5C533.3 949.7 586.7 957.3 640 956.5C693.3 955.7 746.7 946.3 800 943.5C853.3 940.7 906.7 944.3 960 951C1013.3 957.7 1066.7 967.3 1120 962C1173.3 956.7 1226.7 936.3 1280 936.8C1333.3 937.3 1386.7 958.7 1440 962.7C1493.3 966.7 1546.7 953.3 1600 953.2C1653.3 953 1706.7 966 1760 972.8C1813.3 979.7 1866.7 980.3 1893.3 980.7L1920 981L1920 1081L1893.3 1081C1866.7 1081 1813.3 1081 1760 1081C1706.7 1081 1653.3 1081 1600 1081C1546.7 1081 1493.3 1081 1440 1081C1386.7 1081 1333.3 1081 1280 1081C1226.7 1081 1173.3 1081 1120 1081C1066.7 1081 1013.3 1081 960 1081C906.7 1081 853.3 1081 800 1081C746.7 1081 693.3 1081 640 1081C586.7 1081 533.3 1081 480 1081C426.7 1081 373.3 1081 320 1081C266.7 1081 213.3 1081 160 1081C106.7 1081 53.3 1081 26.7 1081L0 1081Z" fill="#bb2522"></path><path d="M0 985L26.7 979.2C53.3 973.3 106.7 961.7 160 964C213.3 966.3 266.7 982.7 320 984.2C373.3 985.7 426.7 972.3 480 971.2C533.3 970 586.7 981 640 983.2C693.3 985.3 746.7 978.7 800 974.3C853.3 970 906.7 968 960 969.5C1013.3 971 1066.7 976 1120 982C1173.3 988 1226.7 995 1280 990.2C1333.3 985.3 1386.7 968.7 1440 963.7C1493.3 958.7 1546.7 965.3 1600 971.8C1653.3 978.3 1706.7 984.7 1760 990.7C1813.3 996.7 1866.7 1002.3 1893.3 1005.2L1920 1008L1920 1081L1893.3 1081C1866.7 1081 1813.3 1081 1760 1081C1706.7 1081 1653.3 1081 1600 1081C1546.7 1081 1493.3 1081 1440 1081C1386.7 1081 1333.3 1081 1280 1081C1226.7 1081 1173.3 1081 1120 1081C1066.7 1081 1013.3 1081 960 1081C906.7 1081 853.3 1081 800 1081C746.7 1081 693.3 1081 640 1081C586.7 1081 533.3 1081 480 1081C426.7 1081 373.3 1081 320 1081C266.7 1081 213.3 1081 160 1081C106.7 1081 53.3 1081 26.7 1081L0 1081Z" fill="#aa1c19"></path><path d="M0 988L26.7 988.8C53.3 989.7 106.7 991.3 160 998C213.3 1004.7 266.7 1016.3 320 1019.7C373.3 1023 426.7 1018 480 1013.5C533.3 1009 586.7 1005 640 1002.2C693.3 999.3 746.7 997.7 800 997.3C853.3 997 906.7 998 960 999.7C1013.3 1001.3 1066.7 1003.7 1120 1006.2C1173.3 1008.7 1226.7 1011.3 1280 1011.3C1333.3 1011.3 1386.7 1008.7 1440 1008.3C1493.3 1008 1546.7 1010 1600 1007C1653.3 1004 1706.7 996 1760 996C1813.3 996 1866.7 1004 1893.3 1008L1920 1012L1920 1081L1893.3 1081C1866.7 1081 1813.3 1081 1760 1081C1706.7 1081 1653.3 1081 1600 1081C1546.7 1081 1493.3 1081 1440 1081C1386.7 1081 1333.3 1081 1280 1081C1226.7 1081 1173.3 1081 1120 1081C1066.7 1081 1013.3 1081 960 1081C906.7 1081 853.3 1081 800 1081C746.7 1081 693.3 1081 640 1081C586.7 1081 533.3 1081 480 1081C426.7 1081 373.3 1081 320 1081C266.7 1081 213.3 1081 160 1081C106.7 1081 53.3 1081 26.7 1081L0 1081Z" fill="#9a1311"></path><path d="M0 1033L26.7 1036.5C53.3 1040 106.7 1047 160 1048.3C213.3 1049.7 266.7 1045.3 320 1042.8C373.3 1040.3 426.7 1039.7 480 1038.2C533.3 1036.7 586.7 1034.3 640 1037C693.3 1039.7 746.7 1047.3 800 1046.7C853.3 1046 906.7 1037 960 1035.7C1013.3 1034.3 1066.7 1040.7 1120 1042.2C1173.3 1043.7 1226.7 1040.3 1280 1039.5C1333.3 1038.7 1386.7 1040.3 1440 1038.8C1493.3 1037.3 1546.7 1032.7 1600 1030C1653.3 1027.3 1706.7 1026.7 1760 1030C1813.3 1033.3 1866.7 1040.7 1893.3 1044.3L1920 1048L1920 1081L1893.3 1081C1866.7 1081 1813.3 1081 1760 1081C1706.7 1081 1653.3 1081 1600 1081C1546.7 1081 1493.3 1081 1440 1081C1386.7 1081 1333.3 1081 1280 1081C1226.7 1081 1173.3 1081 1120 1081C1066.7 1081 1013.3 1081 960 1081C906.7 1081 853.3 1081 800 1081C746.7 1081 693.3 1081 640 1081C586.7 1081 533.3 1081 480 1081C426.7 1081 373.3 1081 320 1081C266.7 1081 213.3 1081 160 1081C106.7 1081 53.3 1081 26.7 1081L0 1081Z" fill="#8a0808"></path></svg>