<svg id="visual" viewBox="0 0 1920 1080" width="1920" height="1080" xmlns="http://www.w3.org/2000/svg" xmlns:xlink="http://www.w3.org/1999/xlink" version="1.1"><rect x="0" y="0" width="1920" height="1080" fill="#ffffff"></rect><path d="M0 810L26.7 811.7C53.3 813.3 106.7 816.7 160 816.7C213.3 816.7 266.7 813.3 320 806.5C373.3 799.7 426.7 789.3 480 782.7C533.3 776 586.7 773 640 774.5C693.3 776 746.7 782 800 786.7C853.3 791.3 906.7 794.7 960 801.2C1013.3 807.7 1066.7 817.3 1120 811C1173.3 804.7 1226.7 782.3 1280 782.2C1333.3 782 1386.7 804 1440 800C1493.3 796 1546.7 766 1600 763.7C1653.3 761.3 1706.7 786.7 1760 786.3C1813.3 786 1866.7 760 1893.3 747L1920 734L1920 1081L1893.3 1081C1866.7 1081 1813.3 1081 1760 1081C1706.7 1081 1653.3 1081 1600 1081C1546.7 1081 1493.3 1081 1440 1081C1386.7 1081 1333.3 1081 1280 1081C1226.7 1081 1173.3 1081 1120 1081C1066.7 1081 1013.3 1081 960 1081C906.7 1081 853.3 1081 800 1081C746.7 1081 693.3 1081 640 1081C586.7 1081 533.3 1081 480 1081C426.7 1081 373.3 1081 320 1081C266.7 1081 213.3 1081 160 1081C106.7 1081 53.3 1081 26.7 1081L0 1081Z" fill="#ef798a"></path><path d="M0 848L26.7 840.7C53.3 833.3 106.7 818.7 160 804.2C213.3 789.7 266.7 775.3 320 773C373.3 770.7 426.7 780.3 480 788.2C533.3 796 586.7 802 640 807.8C693.3 813.7 746.7 819.3 800 815.5C853.3 811.7 906.7 798.3 960 794.2C1013.3 790 1066.7 795 1120 807.5C1173.3 820 1226.7 840 1280 836.7C1333.3 833.3 1386.7 806.7 1440 809C1493.3 811.3 1546.7 842.7 1600 853.2C1653.3 863.7 1706.7 853.3 1760 838.3C1813.3 823.3 1866.7 803.7 1893.3 793.8L1920 784L1920 1081L1893.3 1081C1866.7 1081 1813.3 1081 1760 1081C1706.7 1081 1653.3 1081 1600 1081C1546.7 1081 1493.3 1081 1440 1081C1386.7 1081 1333.3 1081 1280 1081C1226.7 1081 1173.3 1081 1120 1081C1066.7 1081 1013.3 1081 960 1081C906.7 1081 853.3 1081 800 1081C746.7 1081 693.3 1081 640 1081C586.7 1081 533.3 1081 480 1081C426.7 1081 373.3 1081 320 1081C266.7 1081 213.3 1081 160 1081C106.7 1081 53.3 1081 26.7 1081L0 1081Z" fill="#e26a79"></path><path d="M0 861L26.7 856.5C53.3 852 106.7 843 160 846.7C213.3 850.3 266.7 866.7 320 865C373.3 863.3 426.7 843.7 480 840.5C533.3 837.3 586.7 850.7 640 854.7C693.3 858.7 746.7 853.3 800 842.7C853.3 832 906.7 816 960 814.3C1013.3 812.7 1066.7 825.3 1120 833.7C1173.3 842 1226.7 846 1280 841.5C1333.3 837 1386.7 824 1440 818.7C1493.3 813.3 1546.7 815.7 1600 816.7C1653.3 817.7 1706.7 817.3 1760 821.3C1813.3 825.3 1866.7 833.7 1893.3 837.8L1920 842L1920 1081L1893.3 1081C1866.7 1081 1813.3 1081 1760 1081C1706.7 1081 1653.3 1081 1600 1081C1546.7 1081 1493.3 1081 1440 1081C1386.7 1081 1333.3 1081 1280 1081C1226.7 1081 1173.3 1081 1120 1081C1066.7 1081 1013.3 1081 960 1081C906.7 1081 853.3 1081 800 1081C746.7 1081 693.3 1081 640 1081C586.7 1081 533.3 1081 480 1081C426.7 1081 373.3 1081 320 1081C266.7 1081 213.3 1081 160 1081C106.7 1081 53.3 1081 26.7 1081L0 1081Z" fill="#d45c69"></path><path d="M0 883L26.7 881C53.3 879 106.7 875 160 871.3C213.3 867.7 266.7 864.3 320 859.8C373.3 855.3 426.7 849.7 480 858.5C533.3 867.3 586.7 890.7 640 894.3C693.3 898 746.7 882 800 877.7C853.3 873.3 906.7 880.7 960 879.5C1013.3 878.3 1066.7 868.7 1120 870.8C1173.3 873 1226.7 887 1280 897.5C1333.3 908 1386.7 915 1440 911.3C1493.3 907.7 1546.7 893.3 1600 879.7C1653.3 866 1706.7 853 1760 854.7C1813.3 856.3 1866.7 872.7 1893.3 880.8L1920 889L1920 1081L1893.3 1081C1866.7 1081 1813.3 1081 1760 1081C1706.7 1081 1653.3 1081 1600 1081C1546.7 1081 1493.3 1081 1440 1081C1386.7 1081 1333.3 1081 1280 1081C1226.7 1081 1173.3 1081 1120 1081C1066.7 1081 1013.3 1081 960 1081C906.7 1081 853.3 1081 800 1081C746.7 1081 693.3 1081 640 1081C586.7 1081 533.3 1081 480 1081C426.7 1081 373.3 1081 320 1081C266.7 1081 213.3 1081 160 1081C106.7 1081 53.3 1081 26.7 1081L0 1081Z" fill="#c64d59"></path><path d="M0 919L26.7 913.2C53.3 907.3 106.7 895.7 160 891.2C213.3 886.7 266.7 889.3 320 889C373.3 888.7 426.7 885.3 480 894.7C533.3 904 586.7 926 640 931.8C693.3 937.7 746.7 927.3 800 925C853.3 922.7 906.7 928.3 960 934C1013.3 939.7 1066.7 945.3 1120 940.3C1173.3 935.3 1226.7 919.7 1280 909.5C1333.3 899.3 1386.7 894.7 1440 900.3C1493.3 906 1546.7 922 1600 921.5C1653.3 921 1706.7 904 1760 903C1813.3 902 1866.7 917 1893.3 924.5L1920 932L1920 1081L1893.3 1081C1866.7 1081 1813.3 1081 1760 1081C1706.7 1081 1653.3 1081 1600 1081C1546.7 1081 1493.3 1081 1440 1081C1386.7 1081 1333.3 1081 1280 1081C1226.7 1081 1173.3 1081 1120 1081C1066.7 1081 1013.3 1081 960 1081C906.7 1081 853.3 1081 800 1081C746.7 1081 693.3 1081 640 1081C586.7 1081 533.3 1081 480 1081C426.7 1081 373.3 1081 320 1081C266.7 1081 213.3 1081 160 1081C106.7 1081 53.3 1081 26.7 1081L0 1081Z" fill="#b83f49"></path><path d="M0 978L26.7 980C53.3 982 106.7 986 160 980.7C213.3 975.3 266.7 960.7 320 956.2C373.3 951.7 426.7 957.3 480 960.5C533.3 963.7 586.7 964.3 640 957.8C693.3 951.3 746.7 937.7 800 939.7C853.3 941.7 906.7 959.3 960 970.8C1013.3 982.3 1066.7 987.7 1120 983.5C1173.3 979.3 1226.7 965.7 1280 955.2C1333.3 944.7 1386.7 937.3 1440 943.2C1493.3 949 1546.7 968 1600 971.8C1653.3 975.7 1706.7 964.3 1760 964C1813.3 963.7 1866.7 974.3 1893.3 979.7L1920 985L1920 1081L1893.3 1081C1866.7 1081 1813.3 1081 1760 1081C1706.7 1081 1653.3 1081 1600 1081C1546.7 1081 1493.3 1081 1440 1081C1386.7 1081 1333.3 1081 1280 1081C1226.7 1081 1173.3 1081 1120 1081C1066.7 1081 1013.3 1081 960 1081C906.7 1081 853.3 1081 800 1081C746.7 1081 693.3 1081 640 1081C586.7 1081 533.3 1081 480 1081C426.7 1081 373.3 1081 320 1081C266.7 1081 213.3 1081 160 1081C106.7 1081 53.3 1081 26.7 1081L0 1081Z" fill="#aa2f3a"></path><path d="M0 978L26.7 978.7C53.3 979.3 106.7 980.7 160 979.2C213.3 977.7 266.7 973.3 320 979.8C373.3 986.3 426.7 1003.7 480 1010.5C533.3 1017.3 586.7 1013.7 640 1009C693.3 1004.3 746.7 998.7 800 991.8C853.3 985 906.7 977 960 977C1013.3 977 1066.7 985 1120 989.2C1173.3 993.3 1226.7 993.7 1280 998.7C1333.3 1003.7 1386.7 1013.3 1440 1013.8C1493.3 1014.3 1546.7 1005.7 1600 1002C1653.3 998.3 1706.7 999.7 1760 994.8C1813.3 990 1866.7 979 1893.3 973.5L1920 968L1920 1081L1893.3 1081C1866.7 1081 1813.3 1081 1760 1081C1706.7 1081 1653.3 1081 1600 1081C1546.7 1081 1493.3 1081 1440 1081C1386.7 1081 1333.3 1081 1280 1081C1226.7 1081 1173.3 1081 1120 1081C1066.7 1081 1013.3 1081 960 1081C906.7 1081 853.3 1081 800 1081C746.7 1081 693.3 1081 640 1081C586.7 1081 533.3 1081 480 1081C426.7 1081 373.3 1081 320 1081C266.7 1081 213.3 1081 160 1081C106.7 1081 53.3 1081 26.7 1081L0 1081Z" fill="#9c1f2b"></path><path d="M0 1013L26.7 1019.2C53.3 1025.3 106.7 1037.7 160 1044.7C213.3 1051.7 266.7 1053.3 320 1052C373.3 1050.7 426.7 1046.3 480 1041.2C533.3 1036 586.7 1030 640 1031.3C693.3 1032.7 746.7 1041.3 800 1046.3C853.3 1051.3 906.7 1052.7 960 1046.8C1013.3 1041 1066.7 1028 1120 1020.2C1173.3 1012.3 1226.7 1009.7 1280 1014C1333.3 1018.3 1386.7 1029.7 1440 1033.3C1493.3 1037 1546.7 1033 1600 1032.5C1653.3 1032 1706.7 1035 1760 1031.5C1813.3 1028 1866.7 1018 1893.3 1013L1920 1008L1920 1081L1893.3 1081C1866.7 1081 1813.3 1081 1760 1081C1706.7 1081 1653.3 1081 1600 1081C1546.7 1081 1493.3 1081 1440 1081C1386.7 1081 1333.3 1081 1280 1081C1226.7 1081 1173.3 1081 1120 1081C1066.7 1081 1013.3 1081 960 1081C906.7 1081 853.3 1081 800 1081C746.7 1081 693.3 1081 640 1081C586.7 1081 533.3 1081 480 1081C426.7 1081 373.3 1081 320 1081C266.7 1081 213.3 1081 160 1081C106.7 1081 53.3 1081 26.7 1081L0 1081Z" fill="#8d091d"></path></svg>