<svg xmlns="http://www.w3.org/2000/svg" width="256.5087" height="65.7895" viewBox="0 0 256.5087 65.7895"><defs><style>.a,.b{fill:#073b4c;}.b{opacity:0.46;}</style></defs><circle class="a" cx="32.8947" cy="32.8947" r="19.3762"/><circle class="b" cx="32.8947" cy="32.8947" r="32.8947"/><path class="a" d="M118.6206,56.7354,107.2456,24.95h5.46L122.2607,52.9h.91L132.7256,24.95h5.46l-11.375,31.7857Z" transform="translate(-34.8799 -4.6053)"/><path class="a" d="M148.1948,20.01a3.8935,3.8935,0,0,1-2.8276-1.105A3.7281,3.7281,0,0,1,144.23,16.11a3.81,3.81,0,0,1,1.1377-2.86,3.8976,3.8976,0,0,1,2.8276-1.105A3.7913,3.7913,0,0,1,150.99,13.25a3.8717,3.8717,0,0,1,1.105,2.86,3.7795,3.7795,0,0,1-3.9,3.9Zm-2.6,36.7256V24.95H150.73V56.7354Z" transform="translate(-34.8799 -4.6053)"/><path class="a" d="M173.22,56.7354a5.1364,5.1364,0,0,1-5.6552-5.59v-21.71h-9.5552V24.95h9.5552V13.64H172.7V24.95h10.4v4.4854H172.7v20.93a1.6952,1.6952,0,0,0,1.8848,1.95h7.0849v4.42Z" transform="translate(-34.8799 -4.6053)"/><path class="a" d="M200.9746,57.6455a15.2005,15.2005,0,0,1-6.0449-1.17,9.8655,9.8655,0,0,1-4.29-3.3809,9.1121,9.1121,0,0,1-1.56-5.3945,8.7887,8.7887,0,0,1,1.56-5.3623,9.4986,9.4986,0,0,1,4.29-3.1856,16.5872,16.5872,0,0,1,6.1094-1.0722h10.7255V35.74a7.1386,7.1386,0,0,0-1.9824-5.33q-1.9833-1.95-5.8828-1.95a8.8581,8.8581,0,0,0-5.9805,1.8525,9.37,9.37,0,0,0-2.9248,4.9722l-4.81-1.56a14.4371,14.4371,0,0,1,2.47-4.8428,12.149,12.149,0,0,1,4.5176-3.51,15.83,15.83,0,0,1,6.792-1.3326q6.11,0,9.49,3.1524t3.38,8.8725V50.43q0,1.9512,1.82,1.95h2.9248v4.3555h-4.4853a4.8656,4.8656,0,0,1-3.4444-1.2032,4.1662,4.1662,0,0,1-1.3-3.2168V51.99h-.78a15.4674,15.4674,0,0,1-1.9179,2.5674,9.0967,9.0967,0,0,1-3.2823,2.21A14.0322,14.0322,0,0,1,200.9746,57.6455Zm.585-4.42a10.2437,10.2437,0,0,0,7.3769-2.6983q2.8287-2.6967,2.8281-7.5722V42.24h-10.53a8.8489,8.8489,0,0,0-5.0371,1.3321,4.4939,4.4939,0,0,0-1.9834,3.998,4.86,4.86,0,0,0,2.0478,4.16A8.7608,8.7608,0,0,0,201.56,53.2256Z" transform="translate(-34.8799 -4.6053)"/><path class="a" d="M228.5986,56.7354v-45.5h5.1358V56.7354Z" transform="translate(-34.8799 -4.6053)"/><path class="a" d="M247.124,20.01a3.89,3.89,0,0,1-2.8271-1.105,3.7281,3.7281,0,0,1-1.1377-2.7949,3.81,3.81,0,0,1,1.1377-2.86,3.894,3.894,0,0,1,2.8271-1.105,3.7913,3.7913,0,0,1,2.7949,1.105,3.8713,3.8713,0,0,1,1.1045,2.86,3.7787,3.7787,0,0,1-3.8994,3.9Zm-2.6006,36.7256V24.95h5.1358V56.7354Z" transform="translate(-34.8799 -4.6053)"/><path class="a" d="M275.1387,57.6455a17.352,17.352,0,0,1-8.4825-2.0156,14.2931,14.2931,0,0,1-5.72-5.6875,17.5343,17.5343,0,0,1-2.0478-8.6778V40.42a17.5873,17.5873,0,0,1,2.0478-8.645,14.2482,14.2482,0,0,1,5.72-5.72,18.8641,18.8641,0,0,1,16.9649,0,14.2476,14.2476,0,0,1,5.72,5.72,17.5862,17.5862,0,0,1,2.0479,8.645v.8447a17.5333,17.5333,0,0,1-2.0479,8.6778,14.2924,14.2924,0,0,1-5.72,5.6875A17.357,17.357,0,0,1,275.1387,57.6455Zm0-4.6152a10.5747,10.5747,0,0,0,8.0927-3.2178,12.1617,12.1617,0,0,0,3.0225-8.6777V40.55a12.162,12.162,0,0,0-3.0225-8.6772,11.7438,11.7438,0,0,0-16.1523,0,12.077,12.077,0,0,0-3.0557,8.6772v.585a12.0767,12.0767,0,0,0,3.0557,8.6777A10.5957,10.5957,0,0,0,275.1387,53.03Z" transform="translate(-34.8799 -4.6053)"/></svg>